PathFileType	4	(X/Y/Z)	/Users/itak/Documents/Research/Walk-IL/dataset/trc/00045_00004.trc
DataRate	CameraRate	NumFrames	NumMarkers	Units	OrigDataRate	OrigDataStartFrame	OrigNumFrames
100.000000	100.000000	4	53	mm	100.000000	336	538
Frame#	Time	RPSI			LPSI			L3			STRN			T10			C7			CLAV			RBAK			LBAK			LSHO			LUPA			LAEL			LAOL			LWTS			LWPS			LFRA			LIFD			LHPS			LHTS			RSHO			RUPA			RAEL			RAOL			RWTS			RWPS			RFRA			RIFD			RHTS			RHPS			RBHD			LFHD			RFHD			LBHD			LHIP			RHIP			RASI			LASI			LKNE			LTHI			LANK			LTIP			LTOE			LMT1			LMT5			LHEE			RKNE			RTHI			RANK			RTIP			RTOE			RMT1			RMT5			RHEE			
		X1	Y1	Z1	X2	Y2	Z2	X3	Y3	Z3	X4	Y4	Z4	X5	Y5	Z5	X6	Y6	Z6	X7	Y7	Z7	X8	Y8	Z8	X9	Y9	Z9	X10	Y10	Z10	X11	Y11	Z11	X12	Y12	Z12	X13	Y13	Z13	X14	Y14	Z14	X15	Y15	Z15	X16	Y16	Z16	X17	Y17	Z17	X18	Y18	Z18	X19	Y19	Z19	X20	Y20	Z20	X21	Y21	Z21	X22	Y22	Z22	X23	Y23	Z23	X24	Y24	Z24	X25	Y25	Z25	X26	Y26	Z26	X27	Y27	Z27	X28	Y28	Z28	X29	Y29	Z29	X30	Y30	Z30	X31	Y31	Z31	X32	Y32	Z32	X33	Y33	Z33	X34	Y34	Z34	X35	Y35	Z35	X36	Y36	Z36	X37	Y37	Z37	X38	Y38	Z38	X39	Y39	Z39	X40	Y40	Z40	X41	Y41	Z41	X42	Y42	Z42	X43	Y43	Z43	X44	Y44	Z44	X45	Y45	Z45	X46	Y46	Z46	X47	Y47	Z47	X48	Y48	Z48	X49	Y49	Z49	X50	Y50	Z50	X51	Y51	Z51	X52	Y52	Z52	X53	Y53	Z53	

337	3.36	-161.7185668945312	1054.556274414062	394.9422607421875	-47.10510635375977	1049.626708984375	279.1974182128906	-104.6001586914062	1111.370971679688	322.9679565429688	40.58979415893555	1309.282348632812	490.6227416992188	-114.7935943603516	1256.0537109375	296.7017822265625	-70.87040710449219	1524.126831054688	321.8282165527344	19.55162239074707	1434.798217773438	452.169677734375	-169.1827087402344	1389.313598632812	331.1158752441406	-6.642424583435059	1481.273315429688	248.4623260498047	114.4728088378906	1488.340576171875	282.1758422851562	153.6712646484375	1363.214721679688	207.027587890625	171.4282684326172	1148.182373046875	179.7582397460938	65.84053802490234	1134.352661132812	196.1534729003906	188.6385192871094	890.0165405273438	269.2071838378906	169.2671813964844	880.339111328125	182.8577270507812	184.3689422607422	1031.901733398438	178.8712615966797	188.8560485839844	704.7125854492188	292.1099548339844	191.4817352294922	789.6568603515625	203.2571105957031	212.1598358154297	796.2787475585938	271.6397705078125	-163.0152435302734	1512.848388671875	489.2290954589844	-230.2768859863281	1446.440185546875	520.0221557617188	-291.6910705566406	1184.620727539062	504.1806640625	-216.8373260498047	1151.670043945312	447.0305786132812	-205.6214141845703	919.404296875	589.7772216796875	-296.8827819824219	909.080810546875	576.7589721679688	-301.0550842285156	1108.586547851562	523.2957153320312	-188.7962951660156	734.7008056640625	591.7896728515625	-199.8836517333984	811.0037231445312	624.673095703125	-274.6058654785156	807.0279541015625	610.3353881835938	28.97705268859863	1706.0517578125	333.0184326171875	-14.32151985168457	1722.423950195312	546.6339111328125	75.19625854492188	1727.5654296875	507.3151245117188	-100.652214050293	1696.82421875	395.9524841308594	106.6917343139648	954.4176025390625	278.8361206054688	-154.3403778076172	939.601318359375	547.7760620117188	-33.98715209960938	982.171142578125	569.583740234375	132.5316772460938	1004.867736816406	406.052001953125	181.5374603271484	529.0623168945312	414.3157653808594	168.8993988037109	658.4338989257812	348.077880859375	145.5460052490234	33.57828521728516	319.1781311035156	164.0085296630859	286.2999877929688	337.42578125	192.1650390625	37.08349609375	543.2904663085938	151.4593353271484	46.60766983032227	498.2816467285156	224.0547332763672	34.18102264404297	417.3572387695312	65.23897552490234	42.18578338623047	284.2087097167969	-73.79111480712891	499.6828308105469	573.8279418945312	-117.9160232543945	774.65966796875	573.1214599609375	-358.4652404785156	227.4882202148438	261.8893127441406	-133.6130523681641	398.5063171386719	511.5906372070312	-226.1198577880859	43.87639617919922	315.7335205078125	-233.5181121826172	101.2731170654297	273.7335815429688	-310.3946533203125	104.0439758300781	332.4097290039062	-351.1313171386719	273.5484924316406	208.2152557373047	
338	3.37	-155.4510803222656	1055.585815429688	398.6718444824219	-40.57510757446289	1050.66796875	283.5938110351562	-98.59926605224609	1112.59423828125	326.590576171875	45.63920974731445	1310.528198242188	495.9538879394531	-107.4940719604492	1257.083129882812	300.2517700195312	-63.88814544677734	1525.245971679688	325.782470703125	24.97411346435547	1436.031494140625	457.2129211425781	-162.2498626708984	1390.4501953125	333.9242248535156	1.215963959693909	1482.389526367188	253.1925201416016	121.8563842773438	1489.545776367188	288.3663940429688	162.228271484375	1364.502319335938	213.7313385009766	181.03759765625	1149.464233398438	187.1343841552734	75.27178192138672	1135.299926757812	202.1591796875	197.9954681396484	891.6333618164062	277.5061340332031	179.8245391845703	881.6404418945312	190.9541931152344	194.3729553222656	1033.238891601562	186.7167358398438	198.6201171875	706.3712158203125	300.8650512695312	202.1033630371094	791.103271484375	211.8679656982422	221.8625640869141	798.0010375976562	280.47998046875	-158.0799255371094	1514.05908203125	491.9783630371094	-225.7486877441406	1447.713623046875	521.8985595703125	-287.361328125	1186.075073242188	504.9052124023438	-212.1005859375	1153.01025390625	448.5421142578125	-203.5339202880859	920.263427734375	591.0287475585938	-294.6723022460938	910.3656005859375	576.4682006835938	-297.0537109375	1110.068481445312	523.7310791015625	-187.392822265625	735.453857421875	592.798828125	-198.9522705078125	811.6685180664062	625.6657104492188	-273.3818969726562	808.195556640625	609.9743041992188	35.8569221496582	1707.127075195312	337.9944763183594	-9.849103927612305	1723.695678710938	551.0983276367188	80.06583404541016	1728.77734375	512.7955932617188	-94.47377014160156	1697.961059570312	399.4923095703125	112.7523574829102	955.3497924804688	284.1886596679688	-149.7719116210938	941.1316528320312	551.8955078125	-29.51587104797363	983.7805786132812	574.0051879882812	138.2063446044922	1005.75	411.7040405273438	184.4155578613281	528.4443969726562	415.5399169921875	172.7630767822266	658.4996948242188	350.7571716308594	145.5914611816406	33.484375	319.1432800292969	165.2678375244141	286.1643371582031	337.7228393554688	192.3820190429688	37.17374420166016	543.259033203125	151.7100372314453	46.78168869018555	498.2345275878906	224.2551116943359	34.00637054443359	417.2235107421875	65.30281066894531	42.41062164306641	284.1558837890625	-65.23884582519531	502.3972473144531	584.5303344726562	-112.440544128418	776.903564453125	579.4495849609375	-342.5288696289062	228.1090545654297	268.6311645507812	-123.5385055541992	400.908935546875	521.8931274414062	-213.2043609619141	45.37824630737305	333.3788146972656	-218.7272644042969	101.2236785888672	288.8309020996094	-297.0935363769531	107.3699645996094	345.1701049804688	-333.5928039550781	272.186279296875	213.5205841064453	
339	3.38	-149.2767791748047	1056.54248046875	402.4085998535156	-34.13986587524414	1051.637329101562	288.0110168457031	-92.72483062744141	1113.695434570312	330.2254333496094	50.58258056640625	1311.65966796875	501.2864074707031	-100.3740539550781	1258.013061523438	303.8203430175781	-57.01238250732422	1526.250732421875	329.7731018066406	30.30095291137695	1437.152465820312	462.2634582519531	-155.4153442382812	1391.48583984375	336.7804260253906	8.94455623626709	1483.385498046875	257.95751953125	129.1065673828125	1490.642822265625	294.5732116699219	170.6279449462891	1365.681274414062	220.4629516601562	190.4631958007812	1150.632934570312	194.5337677001953	84.58273315429688	1136.144287109375	208.2430725097656	207.2057495117188	893.20556640625	285.9677429199219	190.2368011474609	882.8400268554688	199.2240600585938	204.2091827392578	1034.470825195312	194.6508178710938	208.404296875	708.0459594726562	309.9518432617188	212.5906829833984	792.461181640625	220.7205505371094	231.4217834472656	799.6742553710938	289.5401000976562	-153.2410278320312	1515.160766601562	494.7507934570312	-221.3029632568359	1448.881713867188	523.7925415039062	-283.0459594726562	1187.419067382812	505.6355285644531	-207.3422546386719	1154.2392578125	450.1141052246094	-201.4744567871094	921.03466796875	592.3035278320312	-292.4874267578125	911.5612182617188	576.1592407226562	-293.094970703125	1111.436889648438	524.159423828125	-186.0150146484375	736.15380859375	593.8690795898438	-198.0968322753906	812.272216796875	626.6910400390625	-272.1580505371094	809.2700805664062	609.6361694335938	42.6079216003418	1708.112670898438	343.0123291015625	-5.519497871398926	1724.84423828125	555.5755004882812	84.78814697265625	1729.882202148438	518.3014526367188	-88.40935516357422	1698.984619140625	403.0538635253906	118.4824829101562	956.2015991210938	289.4535827636719	-145.3756103515625	942.5838012695312	555.9672241210938	-25.19291114807129	985.25244140625	578.3920288085938	143.7101593017578	1006.519897460938	417.3324584960938	187.1790161132812	527.8438110351562	416.8265686035156	176.4819030761719	658.5447998046875	353.4692993164062	145.6221618652344	33.4191780090332	319.1250305175781	166.4831085205078	286.0433654785156	338.1011047363281	192.617431640625	37.26962661743164	543.2341918945312	151.9517059326172	46.94386291503906	498.2007141113281	224.4387359619141	33.8523063659668	417.1082153320312	65.3541259765625	42.65555191040039	284.1209106445312	-57.11596298217773	505.1857299804688	595.16259765625	-107.2843704223633	779.1380004882812	585.7606811523438	-326.3069152832031	227.1512298583984	276.1758728027344	-113.7992248535156	403.2358703613281	532.2393798828125	-198.9416046142578	46.62784194946289	351.1440734863281	-203.1118774414062	100.7100067138672	304.2673645019531	-282.7636413574219	109.4841384887695	358.3400268554688	-316.1189270019531	269.3208923339844	219.7219848632812	
340	3.39	-143.2144622802734	1057.412963867188	406.1388854980469	-27.80066108703613	1052.51904296875	292.4384155273438	-86.93923950195312	1114.66796875	333.8971862792969	55.41171264648438	1312.663696289062	506.624755859375	-93.450927734375	1258.844970703125	307.4113159179688	-50.23526000976562	1527.1298828125	333.8062133789062	35.53427505493164	1438.14892578125	467.3284912109375	-148.6805572509766	1392.412231445312	339.6864013671875	16.54575347900391	1484.250854492188	262.7645568847656	136.2319793701172	1491.614868164062	300.8029174804688	178.8849182128906	1366.7373046875	227.2329254150391	199.7044372558594	1151.672485351562	201.9541931152344	93.75921630859375	1136.878784179688	214.3850708007812	216.2609405517578	894.7174072265625	294.5858154296875	200.4900817871094	883.923828125	207.6586456298828	213.8721771240234	1035.582641601562	202.6634979248047	218.1721954345703	709.7117309570312	319.3558654785156	222.9367523193359	793.7192993164062	229.8037109375	240.8260498046875	801.2842407226562	298.814208984375	-148.4853057861328	1516.141967773438	497.5567626953125	-216.9398040771484	1449.93408203125	525.708740234375	-278.7249145507812	1188.640380859375	506.40478515625	-202.5221557617188	1155.348022460938	451.7940368652344	-199.4303894042969	921.7003784179688	593.5958251953125	-290.3079223632812	912.6546020507812	575.86572265625	-289.1838073730469	1112.682250976562	524.6023559570312	-184.6787414550781	736.768310546875	594.956298828125	-197.2408752441406	812.8062133789062	627.7371826171875	-270.9054260253906	810.2237548828125	609.344970703125	49.23294448852539	1708.98974609375	348.0743408203125	-1.329951763153076	1725.863403320312	560.0648193359375	89.36788177490234	1730.876586914062	523.830322265625	-82.45797729492188	1699.880004882812	406.6360778808594	123.9889678955078	956.9542236328125	294.6582336425781	-141.1307525634766	943.9412231445312	559.9821166992188	-21.00499534606934	986.5765991210938	582.7415771484375	149.0617828369141	1007.161560058594	422.9303894042969	189.8453063964844	527.250244140625	418.2046203613281	180.0675811767578	658.5570068359375	356.2347106933594	145.63525390625	33.38708114624023	319.1282348632812	167.6573028564453	285.9249877929688	338.5742492675781	192.8624572753906	37.36400985717773	543.2168579101562	152.1779327392578	47.08685302734375	498.1832275390625	224.6049041748047	33.71952056884766	417.0140380859375	65.38595581054688	42.91569519042969	284.1065368652344	-49.41983413696289	508.0240173339844	605.724609375	-102.4299545288086	781.3540649414062	592.0423583984375	-309.8916625976562	224.6784362792969	284.5594787597656	-104.4041976928711	405.4464111328125	542.6427612304688	-183.3802642822266	47.59180068969727	368.9614868164062	-186.7022552490234	99.77626037597656	319.9876403808594	-267.51123046875	110.3595428466797	371.8799743652344	-298.773193359375	265.0636291503906	226.8844299316406	
